<svg xmlns="http://www.w3.org/2000/svg" viewBox="0 0 512 512">
  <defs>
    <linearGradient id="bg" x1="0%" y1="0%" x2="100%" y2="100%">
      <stop offset="0%" stop-color="#1a1a2e"/>
      <stop offset="100%" stop-color="#16213e"/>
    </linearGradient>
    <linearGradient id="accent" x1="0%" y1="0%" x2="100%" y2="100%">
      <stop offset="0%" stop-color="#e63946"/>
      <stop offset="100%" stop-color="#ff6b6b"/>
    </linearGradient>
  </defs>
  
  <!-- Rounded background -->
  <rect width="512" height="512" rx="96" fill="url(#bg)"/>
  
  <!-- Film strip left -->
  <g fill="#333">
    <rect x="48" y="96" width="120" height="320" rx="12"/>
    <rect x="60" y="112" width="32" height="24" rx="4" fill="#444"/>
    <rect x="60" y="152" width="32" height="24" rx="4" fill="#444"/>
    <rect x="60" y="192" width="32" height="24" rx="4" fill="#444"/>
    <rect x="60" y="232" width="32" height="24" rx="4" fill="#444"/>
    <rect x="60" y="272" width="32" height="24" rx="4" fill="#444"/>
    <rect x="60" y="312" width="32" height="24" rx="4" fill="#444"/>
    <rect x="60" y="352" width="32" height="24" rx="4" fill="#444"/>
    <rect x="124" y="112" width="32" height="24" rx="4" fill="#444"/>
    <rect x="124" y="152" width="32" height="24" rx="4" fill="#444"/>
    <rect x="124" y="192" width="32" height="24" rx="4" fill="#444"/>
    <rect x="124" y="232" width="32" height="24" rx="4" fill="#444"/>
    <rect x="124" y="272" width="32" height="24" rx="4" fill="#444"/>
    <rect x="124" y="312" width="32" height="24" rx="4" fill="#444"/>
    <rect x="124" y="352" width="32" height="24" rx="4" fill="#444"/>
  </g>
  
  <!-- Film strip right -->
  <g fill="#333">
    <rect x="344" y="96" width="120" height="320" rx="12"/>
    <rect x="356" y="112" width="32" height="24" rx="4" fill="#444"/>
    <rect x="356" y="152" width="32" height="24" rx="4" fill="#444"/>
    <rect x="356" y="192" width="32" height="24" rx="4" fill="#444"/>
    <rect x="356" y="232" width="32" height="24" rx="4" fill="#444"/>
    <rect x="356" y="272" width="32" height="24" rx="4" fill="#444"/>
    <rect x="356" y="312" width="32" height="24" rx="4" fill="#444"/>
    <rect x="356" y="352" width="32" height="24" rx="4" fill="#444"/>
    <rect x="420" y="112" width="32" height="24" rx="4" fill="#444"/>
    <rect x="420" y="152" width="32" height="24" rx="4" fill="#444"/>
    <rect x="420" y="192" width="32" height="24" rx="4" fill="#444"/>
    <rect x="420" y="232" width="32" height="24" rx="4" fill="#444"/>
    <rect x="420" y="272" width="32" height="24" rx="4" fill="#444"/>
    <rect x="420" y="312" width="32" height="24" rx="4" fill="#444"/>
    <rect x="420" y="352" width="32" height="24" rx="4" fill="#444"/>
  </g>
  
  <!-- Center screen -->
  <rect x="176" y="136" width="160" height="240" rx="16" fill="#222"/>
  
  <!-- Play button -->
  <polygon points="224,196 224,316 304,256" fill="url(#accent)"/>
  
  <!-- AI sparkle top-right -->
  <g transform="translate(320, 100)">
    <circle cx="40" cy="40" r="36" fill="url(#accent)"/>
    <path d="M40 16 L44 36 L64 40 L44 44 L40 64 L36 44 L16 40 L36 36 Z" fill="#fff"/>
  </g>
  
  <!-- AI sparkle bottom-left -->
  <g transform="translate(96, 340)">
    <circle cx="28" cy="28" r="24" fill="url(#accent)" opacity="0.7"/>
    <path d="M28 10 L31 25 L46 28 L31 31 L28 46 L25 31 L10 28 L25 25 Z" fill="#fff"/>
  </g>
  
</svg>